HIERARCHY
ROOT root
{
	OFFSET 0.000000 0.000000 0.000000
	CHANNELS 6 Xposition Yposition Zposition Zrotation Yrotation Xrotation
	JOINT lhip
	{
		OFFSET 0.058581 -0.082280 -0.017664
		CHANNELS 3 Zrotation Yrotation Xrotation
		JOINT lknee
		{
			OFFSET 0.043451 -0.386469 0.008037
			CHANNELS 3 Zrotation Yrotation Xrotation
			JOINT lankle
			{
				OFFSET -0.014790 -0.426874 -0.037428
				CHANNELS 3 Zrotation Yrotation Xrotation
				JOINT ltoe
				{
					OFFSET 0.041054 -0.060286 0.122042
					CHANNELS 3 Zrotation Yrotation Xrotation
					End Site
					{
						OFFSET 0.000000 0.000000 0.000000
					}
				}
			}
		}
	}
	JOINT rhip
	{
		OFFSET -0.060310 -0.090513 -0.013543
		CHANNELS 3 Zrotation Yrotation Xrotation
		JOINT rknee
		{
			OFFSET -0.043257 -0.383688 -0.004843
			CHANNELS 3 Zrotation Yrotation Xrotation
			JOINT rankle
			{
				OFFSET 0.019056 -0.420046 -0.034562
				CHANNELS 3 Zrotation Yrotation Xrotation
				JOINT rtoe
				{
					OFFSET -0.034840 -0.062106 0.130323
					CHANNELS 3 Zrotation Yrotation Xrotation
					End Site
					{
						OFFSET 0.000000 0.000000 0.000000
					}
				}
			}
		}
	}
	JOINT lowerback
	{
		OFFSET 0.004439 0.124404 -0.038385
		CHANNELS 3 Zrotation Yrotation Xrotation
		JOINT upperback
		{
			OFFSET 0.004488 0.137956 0.026820
			CHANNELS 3 Zrotation Yrotation Xrotation
			JOINT chest
			{
				OFFSET -0.002265 0.056032 0.002855
				CHANNELS 3 Zrotation Yrotation Xrotation
				JOINT lowerneck
				{
					OFFSET -0.013390 0.211636 -0.033468
					CHANNELS 3 Zrotation Yrotation Xrotation
					JOINT upperneck
					{
						OFFSET 0.010113 0.088937 0.050410
						CHANNELS 3 Zrotation Yrotation Xrotation
						End Site
						{
							OFFSET 0.000000 0.000000 0.000000
						}
					}
				}
				JOINT lclavicle
				{
					OFFSET 0.071702 0.114000 -0.018898
					CHANNELS 3 Zrotation Yrotation Xrotation
					JOINT lshoulder
					{
						OFFSET 0.122921 0.045205 -0.019046
						CHANNELS 3 Zrotation Yrotation Xrotation
						JOINT lelbow
						{
							OFFSET 0.255332 -0.015649 -0.022946
							CHANNELS 3 Zrotation Yrotation Xrotation
							JOINT lwrist
							{
								OFFSET 0.265709 0.012698 -0.007375
								CHANNELS 3 Zrotation Yrotation Xrotation
								End Site
								{
									OFFSET 0.000000 0.000000 0.000000
								}
							}
						}
					}
				}
				JOINT rclavicle
				{
					OFFSET -0.082954 0.112472 -0.023707
					CHANNELS 3 Zrotation Yrotation Xrotation
					JOINT rshoulder
					{
						OFFSET -0.113228 0.046853 -0.008472
						CHANNELS 3 Zrotation Yrotation Xrotation
						JOINT relbow
						{
							OFFSET -0.260127 -0.014369 -0.031269
							CHANNELS 3 Zrotation Yrotation Xrotation
							JOINT rwrist
							{
								OFFSET -0.269108 0.006794 -0.006027
								CHANNELS 3 Zrotation Yrotation Xrotation
								End Site
								{
									OFFSET 0.000000 0.000000 0.000000
								}
							}
						}
					}
				}
			}
		}
	}
}
MOTION
Frames: 10
Frame Time: 0.033333
-0.581223 0.562004 1.109549 85.785195 -2.777468 86.604103 -4.848978 2.190208 0.364727 -7.512887 -10.460021 10.372948 -2.947280 18.183451 9.937649 0.000000 -0.000000 0.000000 3.496059 -5.129620 -3.142289 -0.168392 7.517541 12.773447 9.959258 -18.176886 10.980531 0.000000 -0.000000 0.000000 0.755092 1.956279 6.082935 -2.590900 -1.254425 1.114254 -0.417525 1.419164 11.929449 -8.954688 -3.055817 28.992990 6.790036 7.725084 -7.728190 21.152256 26.525063 0.905190 -33.646106 10.714259 -22.440132 17.628836 -13.417173 -21.116606 25.268740 1.878723 -9.907458 -25.550636 -21.328698 2.079850 39.085107 -15.593794 -17.824812 -27.281445 12.236632 -23.221474 -7.246040 -1.997906 1.468734 
-0.585583 0.560866 1.111076 86.147455 -2.643793 86.036310 -5.214129 1.599686 1.204434 -7.209828 -10.841367 10.682492 -4.077770 19.360521 10.082765 0.000000 -0.000000 0.000000 3.761485 -3.915914 -2.112410 -0.374869 8.339086 12.657054 10.250030 -19.297474 11.095986 0.000000 -0.000000 0.000000 0.012439 2.113702 6.086796 -1.671952 -1.783915 1.167801 0.051641 1.705462 11.770057 -7.849139 -2.057702 29.995382 6.423418 5.706198 -8.252169 28.230451 21.658166 -0.251642 -22.935076 9.081596 -21.825195 17.100393 -12.975251 -19.353468 20.630330 -2.037692 -8.324210 -31.465651 -18.730356 -1.114163 25.565645 -11.742657 -17.451063 -25.757473 12.580356 -20.650334 -8.270227 -0.828220 3.221394 
-0.590655 0.560132 1.101168 86.409182 -2.448741 85.419324 -5.249057 1.775395 2.322678 -6.617021 -10.225128 10.164039 -4.643858 19.914798 9.938913 0.000000 -0.000000 0.000000 3.329606 -3.424642 -1.027640 0.368988 8.215998 12.584569 10.396290 -19.105070 11.427784 0.000000 -0.000000 0.000000 -0.873266 2.459340 5.005850 -0.266928 -2.663599 2.073487 0.112154 2.876217 10.675636 -5.027630 -1.143552 30.572878 5.177586 2.425157 -5.267342 30.871935 11.651172 -3.132305 -9.014217 5.290918 -21.165466 17.595526 -9.317723 -24.890187 17.176220 -7.459858 -1.592411 -31.023739 -11.898689 -6.158901 7.302982 -4.817228 -20.296731 -24.082999 11.143191 -23.338916 -6.006796 2.602927 6.505686 
-0.595721 0.558453 1.084078 86.677125 -2.148871 84.594803 -5.001574 3.722435 3.243416 -6.927404 -11.144149 11.146446 -4.671613 19.498600 3.911462 0.000000 -0.000000 0.000000 3.184469 -4.525652 0.258770 0.934938 9.664410 12.857187 10.492422 -17.297544 8.635609 0.000000 -0.000000 0.000000 -0.592122 2.432669 5.683069 -0.457584 -3.550759 1.198016 0.343711 2.902116 8.794748 -5.749458 -1.348086 31.082616 4.918039 3.118688 -2.703327 30.239578 2.311223 -9.652959 5.377424 0.857982 -21.057104 15.645120 -15.739420 -29.740143 16.918470 -6.727167 2.518631 -30.429483 -2.495162 -14.401067 -5.723794 4.708535 -24.690596 -20.904133 15.914201 -26.391317 -7.221974 3.838646 9.493519 
-0.601940 0.556543 1.062918 86.828053 -1.991761 83.077469 -4.758388 4.634275 4.393751 -7.374078 -11.616784 13.406479 -3.185044 17.720886 -5.221071 0.000000 -0.000000 0.000000 2.934253 -4.897943 1.524286 1.995962 10.133137 15.294587 9.945077 -14.007278 -0.079545 0.000000 -0.000000 0.000000 -0.146870 2.336411 7.725742 -0.785744 -4.491758 -0.149576 0.922633 2.563915 6.600493 -7.337009 -0.513358 30.211440 5.086625 3.231020 1.556947 30.836819 -6.584446 -16.564567 9.645198 -6.652606 -21.643118 14.292922 -24.778416 -30.864937 16.329742 -9.596409 -0.485323 -32.878900 7.206159 -21.634343 -7.111074 15.610679 -26.506626 -19.095516 21.846771 -26.284817 -5.784277 5.157438 7.895952 
-0.610590 0.555325 1.041547 87.063544 -1.917173 81.327103 -4.814232 3.717785 4.869770 -7.766951 -11.161814 16.047577 -0.367022 16.758349 -12.085275 0.000000 -0.000000 0.000000 3.179545 -3.715234 1.840509 2.398142 9.310962 18.430472 7.877500 -12.077285 -7.411020 0.000000 -0.000000 0.000000 0.163971 1.913650 9.925254 -0.901401 -4.619793 -0.637695 0.922464 2.488191 5.007310 -7.069973 0.168290 27.614221 4.787218 2.447229 6.205858 30.805463 -13.676189 -20.409651 5.840889 -18.564646 -21.188165 19.309196 -31.266112 -31.815177 17.771628 -6.931465 -8.021008 -33.458610 15.167022 -23.185046 -2.954072 26.918264 -25.989245 -23.345441 25.594980 -25.397837 -5.140432 5.023710 3.618935 
-0.620352 0.553252 1.024175 87.291618 -1.819626 79.969785 -4.902363 2.109266 4.808663 -7.216045 -8.468316 18.116891 0.986413 14.547184 -16.915600 0.000000 -0.000000 0.000000 3.577990 -2.025812 1.304324 2.026478 6.708398 21.507941 6.360909 -9.723676 -12.430892 0.000000 -0.000000 0.000000 0.171364 1.717139 11.372499 -0.725195 -4.741130 1.024111 0.681039 2.414112 2.519815 -5.872429 1.243878 25.119818 4.192015 0.801412 9.107106 30.976853 -21.072543 -20.070259 -2.837640 -30.450209 -19.940345 27.060699 -31.962124 -33.132700 18.503662 -6.048858 -13.367065 -33.021560 23.474158 -20.993546 3.453581 37.673135 -25.737320 -28.166884 25.720808 -23.917446 -7.633202 4.801882 -2.405244 
-0.630072 0.550781 1.012906 87.488891 -1.691318 79.374704 -4.612654 0.704697 4.377648 -7.074002 -5.924675 18.934183 1.753106 12.803192 -20.470172 0.000000 -0.000000 0.000000 3.791529 -0.127533 0.889192 2.176943 4.530306 22.610379 5.132474 -8.450172 -16.233100 0.000000 -0.000000 0.000000 -0.148175 1.741687 11.590463 -0.407888 -4.927114 4.114938 0.280090 2.838063 -1.356606 -4.896175 1.237986 24.548896 3.926199 0.219447 10.928234 27.169869 -31.513617 -18.021552 -11.589438 -40.712855 -15.218354 30.103207 -27.828679 -34.340942 21.146973 -5.341715 -15.571262 -25.698761 34.366014 -16.123770 8.032512 46.205397 -24.051729 -28.331585 23.593048 -23.060860 -10.404176 5.128934 -6.521505 
-0.638535 0.549958 1.007504 87.267026 -1.638594 79.030962 -4.055788 0.793473 3.678972 -7.002978 -3.563461 19.806340 2.292079 10.885750 -22.291673 0.000000 -0.000000 0.000000 3.770977 0.257854 0.374258 2.012909 3.167009 23.299737 4.032031 -6.869159 -18.579358 0.000000 -0.000000 0.000000 -0.554198 2.072960 12.120253 -0.166015 -5.398956 6.438319 0.429197 3.163024 -4.453923 -5.454717 1.177242 24.041095 4.293639 0.719663 12.476134 13.587202 -42.243109 -11.545542 -20.450548 -44.162579 -9.071509 29.072584 -27.735252 -35.307745 22.698267 -4.597399 -13.589943 -8.879547 44.419199 -4.931006 13.501669 50.004949 -20.543155 -25.247067 24.507844 -21.287805 -13.258729 4.504312 -3.945391 
-0.644120 0.550230 1.007472 86.782993 -2.618989 80.008346 -5.134816 0.541400 2.638406 -7.916344 -5.289329 19.230218 3.074799 13.894944 -22.345239 0.000000 -0.000000 0.000000 2.434481 1.279462 -0.500018 2.510058 2.981386 22.286798 4.701348 -8.264456 -19.118626 0.000000 -0.000000 0.000000 -1.998999 3.324908 11.893871 0.899738 -6.337482 7.833273 -0.519622 3.857862 -7.677824 -7.593602 -0.363699 24.326851 6.557915 3.218366 14.699138 -7.087800 -42.967253 9.046079 -27.253466 -48.981568 -10.607731 25.760432 -29.901488 -30.046581 14.557882 -2.573451 -11.157387 12.033729 43.333126 14.073512 20.831870 54.113392 -21.601138 -18.901158 25.557974 -15.650351 -8.495752 7.021033 -1.915878 
